# xmcd
#
# Track frame offsets:
#	183
#	30408
#	50133
#	72390
#	90183
#	107133
#	122433
#	137133
#	153633
#	171408
#	197658
#	217520
#	237783
#	255483
#	277533
#	302733
#	325008
#
# Disc length: 4524 seconds
#
# Revision: 12
# Processed by: cddbd v1.5.2PL0 Copyright (c) Steve Scherf et al.
# Submitted via: EasyCDDAExtractor 15.3.0.1
#
DISCID=dc11aa11
DTITLE=Cher - Take Me Home, Prisoner
DYEAR=1990
DGENRE=Pop
TTITLE0=Take Me Home
TTITLE1=Wasn't It Good
TTITLE2=Say The Word
TTITLE3=Happy Was The Day We Met
TTITLE4=Git Down (Guitar Groupie)
TTITLE5=Love and Pain
TTITLE6=Let This Be A Lesson To You
TTITLE7=It's Too Late To Love Me Now
TTITLE8=My Song (Too Far Gone)
TTITLE9=Prisoner
TTITLE10=Holdin' Out For Love
TTITLE11=Shoppin'
TTITLE12=Boys and Girls
TTITLE13=Mirror Image
TTITLE14=Hell On Wheels
TTITLE15=Holy Smoke!
TTITLE16=Outrageous
EXTD=
EXTT0=
EXTT1=
EXTT2=
EXTT3=
EXTT4=
EXTT5=
EXTT6=
EXTT7=
EXTT8=
EXTT9=
EXTT10=
EXTT11=
EXTT12=
EXTT13=
EXTT14=
EXTT15=
EXTT16=
PLAYORDER=
